<svg xmlns="http://www.w3.org/2000/svg" width="110" height="105">
  
  <!-- Background -->
  <rect x="0" y="0" width="110" height="105" fill="green" />
  <!-- Black microchip -->
  <rect x="3" y="13" width="103" height="78" fill="black" />

  <!-- White edges around microchip -->
  <line x1="3" y1="13" x2="106" y2="13" stroke="silver" stroke-width="2" />
  <line x1="2" y1="91" x2="107" y2="91" stroke="silver" stroke-width="2" />
  <line x1="3" y1="12" x2="3" y2="91" stroke="silver" stroke-width="2" />
  <line x1="106" y1="12" x2="106" y2="91" stroke="silver" stroke-width="2" />



  <!-- Microchip pins -->
  <!-- Top pins -->
  <rect x="8" y="3" width="10" height="10" fill="silver" />
  <rect x="28" y="3" width="10" height="10" fill="silver" />
  <rect x="48" y="3" width="10" height="10" fill="silver" />
  <rect x="68" y="3" width="10" height="10" fill="silver" />
  <rect x="88" y="3" width="10" height="10" fill="silver" />

  <!-- Bottom pins -->
  <rect x="8" y="91" width="10" height="10" fill="silver" />
  <rect x="28" y="91" width="10" height="10" fill="silver" />
  <rect x="48" y="91" width="10" height="10" fill="silver" />
  <rect x="68" y="91" width="10" height="10" fill="silver" />
  <rect x="88" y="91" width="10" height="10" fill="silver" />

  <!-- Silver half-circle edge -->
  <path d="M3 32 A15 15 0 0 1 3 69" fill="silver" />

  <!-- Silver half-circle -->
  <path d="M3 33 A10 10 0 0 1 3 68" fill="#71706E" />

</svg>
