<svg xmlns="http://www.w3.org/2000/svg" width="200" height="200">
  <!-- Green board -->
  <rect width="200" height="200" fill="#004F00" />

  <!-- Black microchip -->
  <rect x="50" y="65" width="100" height="75" fill="black" />

  <!-- White edges around microchip -->
  <line x1="50" y1="65" x2="150" y2="65" stroke="silver" stroke-width="2" />
  <line x1="50" y1="140" x2="150" y2="140" stroke="silver" stroke-width="2" />
  <line x1="50" y1="64" x2="50" y2="141" stroke="silver" stroke-width="2" />
  <line x1="150" y1="64" x2="150" y2="141" stroke="silver" stroke-width="2" />

  <!-- Highlighting the microchip pins with light green -->
  <!-- Top pins -->
  <circle cx="60" cy="55" r="6" fill="green" />
  <circle cx="80" cy="55" r="6" fill="green" />
  <circle cx="100" cy="55" r="6" fill="green" />
  <circle cx="120" cy="55" r="6" fill="green" />
  <circle cx="140" cy="55" r="6" fill="green" />

  <!-- Bottom pins -->
  <circle cx="60" cy="150" r="6" fill="green" />
  <circle cx="80" cy="150" r="6" fill="green" />
  <circle cx="100" cy="150" r="6" fill="green" />
  <circle cx="120" cy="150" r="6" fill="green" />
  <circle cx="140" cy="150" r="6" fill="green" />

  <!-- Microchip pins -->
  <!-- Top pins -->
  <rect x="55" y="55" width="10" height="10" fill="silver" />
  <rect x="75" y="55" width="10" height="10" fill="silver" />
  <rect x="95" y="55" width="10" height="10" fill="silver" />
  <rect x="115" y="55" width="10" height="10" fill="silver" />
  <rect x="135" y="55" width="10" height="10" fill="silver" />

  <!-- Bottom pins -->
  <rect x="55" y="140" width="10" height="10" fill="silver" />
  <rect x="75" y="140" width="10" height="10" fill="silver" />
  <rect x="95" y="140" width="10" height="10" fill="silver" />
  <rect x="115" y="140" width="10" height="10" fill="silver" />
  <rect x="135" y="140" width="10" height="10" fill="silver" />

  <!-- Silver half-circle edge -->
  <path d="M49 84 A15 15 0 0 1 49 121" fill="silver" />

  <!-- Silver half-circle -->
  <path d="M49 85 A10 10 0 0 1 49 120" fill="#71706E" />

  <!-- Green paths -->
  <!-- Green paths Top-->

  <line x1="60" y1="30" x2="60" y2="52" stroke="green" stroke-width="10" />
  <line x1="80" y1="30" x2="80" y2="52" stroke="green" stroke-width="10" />
  <line x1="100" y1="30" x2="100" y2="52" stroke="green" stroke-width="10" />
  <line x1="120" y1="30" x2="120" y2="52" stroke="green" stroke-width="10" />
  <line x1="140" y1="30" x2="140" y2="52" stroke="green" stroke-width="10" />
  <circle cx="140" cy="31" r="6" fill="green" />
  <circle cx="120" cy="31" r="6" fill="green" />
  <circle cx="100" cy="31" r="6" fill="green" />
  <circle cx="80" cy="31" r="6" fill="green" />
  <circle cx="60" cy="31" r="6" fill="green" />

  <!-- Green paths Bottom-->
  <line x1="60" y1="150" x2="60" y2="172" stroke="green" stroke-width="10" />
  <line x1="80" y1="150" x2="80" y2="172" stroke="green" stroke-width="10" />
  <line x1="100" y1="150" x2="100" y2="172" stroke="green" stroke-width="10" />
  <line x1="120" y1="150" x2="120" y2="172" stroke="green" stroke-width="10" />
  <line x1="140" y1="150" x2="140" y2="172" stroke="green" stroke-width="10" />
  <circle cx="140" cy="173" r="6" fill="green" />
  <circle cx="120" cy="173" r="6" fill="green" />
  <circle cx="100" cy="173" r="6" fill="green" />
  <circle cx="80" cy="173" r="6" fill="green" />
  <circle cx="60" cy="173" r="6" fill="green" />

</svg>
